#!OML:ASF \\sashay\E\basketball\basketball\Project 1\Capture day 1\Session 1\Subject.ASF
:FULLY-SPECIFIED
:DEGREES
197
root 34.3706 14.2903 -15.2449 -45.1649 110.063 -54.5269
lowerback 16.9143 0.046147 -8.27668
upperback 9.51903 -0.282613 -2.97163
thorax 0.832677 -0.0213907 1.56877
lowerneck 1.75103 -8.99036 -18.9538
upperneck -18.8667 -9.49062 26.6889
head -3.10016 -4.95865 12.1614
rclavicle -5.56597e-015 -7.87187e-014
rhumerus -40.8844 19.6081 -104.329
rradius 91.9266
rwrist -9.45271
rhand -30.1635 44.6408
rfingers 7.12502
rthumb -3.47531 14.6894
lclavicle -5.56597e-015 -7.87187e-014
lhumerus -49.5307 4.42259 77.1449
lradius 99.292
lwrist 36.991
lhand 5.7265 29.457
lfingers 7.12502
lthumb 31.0627 56.8465
rfemur -53.4581 -13.1901 28.3555
rtibia 56.1589
rfoot -9.95989 -11.3608
rtoes 1.06378
lfemur 12.5974 1.91417 -2.98976
ltibia 91.0885
lfoot 0.788643 4.64535
ltoes -30.9073
198
root 34.8571 14.2787 -15.3014 -37.9399 107.558 -46.1181
lowerback 17.5843 -0.0296885 -4.301
upperback 9.46304 0.0840598 -1.97969
thorax 0.303118 0.271631 0.330419
lowerneck 4.34049 -8.76254 -18.842
upperneck -20.6201 -9.26353 27.013
head -4.10335 -5.0333 12.5926
rclavicle 1.19271e-014 1.98785e-014
rhumerus -40.3503 24.179 -106.307
rradius 93.211
rwrist -8.96232
rhand -28.6107 45.5341
rfingers 7.12502
rthumb -1.9757 15.5635
lclavicle 1.19271e-014 1.98785e-014
lhumerus -51.4988 5.29064 76.6
lradius 102.475
lwrist 43.7307
lhand 10.8534 30.0767
lfingers 7.12502
lthumb 35.9353 56.4091
rfemur -51.3447 -12.9885 31.7153
rtibia 58.2526
rfoot -12.8632 -11.2488
rtoes 9.36386
lfemur 10.0151 2.15364 3.2187
ltibia 97.3995
lfoot 0.215072 1.53476
ltoes -30.1906
199
root 35.3596 14.3559 -15.3527 -29.7254 106.619 -36.903
lowerback 18.2663 -0.410817 -0.780123
upperback 9.5337 0.110252 -1.20484
thorax -0.00998523 0.392797 -0.847771
lowerneck 6.01523 -9.11005 -17.6956
upperneck -22.0723 -9.78236 26.2829
head -4.84778 -5.42101 12.3227
rclavicle 7.95139e-016 9.54166e-015
rhumerus -39.2312 29.0462 -107.647
rradius 94.0282
rwrist -8.30506
rhand -27.9507 46.6972
rfingers 7.12502
rthumb -1.33833 16.7217
lclavicle 7.95139e-016 9.54166e-015
lhumerus -52.6024 6.41813 76.2339
lradius 105.739
lwrist 51.8945
lhand 12.5197 33.1873
lfingers 7.12502
lthumb 37.5121 59.1176
rfemur -48.6809 -14.6953 34.375
rtibia 59.0683
rfoot -15.4251 -10.7429
rtoes 11.8861
lfemur 6.40362 1.86887 7.70535
ltibia 103.115
lfoot 0.204679 -0.441838
ltoes -27.9704
200
root 35.863 14.4168 -15.3583 -28.367 107.669 -34.9754
lowerback 18.719 -0.481493 -0.625828
upperback 9.69621 0.0839028 -0.964122
thorax -0.0678711 0.395999 -0.678627
lowerneck 5.85109 -9.26685 -17.9255
upperneck -21.7534 -9.97635 26.7963
head -4.61341 -5.53319 12.5003
rclavicle -2.70347e-014 -5.08889e-014
rhumerus -37.6887 33.8225 -108.397
rradius 94.5427
rwrist -7.43036
rhand -28.0849 47.503
rfingers 7.12502
rthumb -1.46787 17.5283
lclavicle -2.70347e-014 -5.08889e-014
lhumerus -52.7897 7.51166 76.0965
lradius 108.252
lwrist 59.4655
lhand 11.6238 35.3221
lfingers 7.12502
lthumb 36.6648 61.4725
rfemur -46.3876 -16.6479 34.1205
rtibia 59.7567
rfoot -17.4697 -10.62
rtoes 9.98558
lfemur 1.85636 1.40157 8.26816
ltibia 108.311
lfoot 0.176802 -1.75784
ltoes -27.2264
201
root 36.3644 14.4868 -15.3606 -26.2209 108.771 -32.7666
lowerback 18.5301 -0.476249 -0.254306
upperback 9.71799 0.163832 -0.70856
thorax 0.0500353 0.445537 -0.632126
lowerneck 5.87111 -9.64425 -17.7627
upperneck -21.436 -10.5343 26.9396
head -4.38651 -5.84298 12.4553
rclavicle -1.19271e-014 9.54166e-015
rhumerus -35.84 38.0387 -108.592
rradius 94.8203
rwrist -6.64237
rhand -28.3393 47.8826
rfingers 7.12502
rthumb -1.71361 17.9098
lclavicle -1.19271e-014 9.54166e-015
lhumerus -52.1279 8.26001 75.9945
lradius 109.208
lwrist 63.6468
lhand 9.80618 36.0392
lfingers 7.12502
lthumb 34.9425 62.6087
rfemur -44.547 -18.6629 34.1812
rtibia 60.0673
rfoot -18.8831 -10.3336
rtoes 8.38028
lfemur -3.33193 1.18848 8.66514
ltibia 112.951
lfoot 0.382606 -2.91948
ltoes -26.0611
202
root 36.8611 14.5527 -15.3539 -26.2911 109.947 -33.1068
lowerback 18.1668 -0.0748596 -0.699706
upperback 9.61225 0.608737 -0.6232
thorax 0.123663 0.643613 -0.366581
lowerneck 6.56867 -10.2747 -17.9054
upperneck -21.3775 -11.5092 27.5516
head -4.18934 -6.42111 12.679
rclavicle 2.3059e-014 1.59028e-015
rhumerus -33.3894 41.5715 -108.031
rradius 93.8849
rwrist -6.28363
rhand -28.7727 48.8491
rfingers 7.12502
rthumb -2.13216 18.88
lclavicle 2.3059e-014 1.59028e-015
lhumerus -50.8039 7.76493 76.849
lradius 109.354
lwrist 61.4266
lhand 9.03436 35.5358
lfingers 7.12502
lthumb 34.2099 62.2728
rfemur -43.0161 -20.1067 33.4688
rtibia 60.4142
rfoot -20.0925 -9.79302
rtoes 9.25402
lfemur -8.66006 1.34143 7.73115
ltibia 116.96
lfoot 0.830802 -3.65956
ltoes -24.8576
203
root 37.351 14.6285 -15.3538 -24.5887 110.754 -31.3629
lowerback 18.0484 0.239822 -0.0985067
upperback 9.46486 1.09987 -0.423525
thorax 0.0301544 0.898637 -0.582103
lowerneck 7.85658 -10.8424 -17.252
upperneck -22.0016 -12.3289 27.549
head -4.45954 -6.96316 12.6652
rclavicle -2.06736e-014 -7.95139e-015
rhumerus -31.3209 43.857 -107.319
rradius 93.6511
rwrist -5.94361
rhand -28.431 48.4689
rfingers 7.12502
rthumb -1.80216 18.4968
lclavicle -2.06736e-014 -7.95139e-015
lhumerus -49.3011 7.01961 77.7207
lradius 109.092
lwrist 58.654
lhand 8.15092 33.8031
lfingers 7.12502
lthumb 33.3705 60.7244
rfemur -41.0056 -21.6076 33.4669
rtibia 60.5178
rfoot -21.0086 -9.22096
rtoes 9.32119
lfemur -13.6144 1.32936 7.21834
ltibia 120.215
lfoot 0.519688 -4.48572
ltoes -25.3332
